<svg xmlns="http://www.w3.org/2000/svg" viewBox="0 0 256 256" width="256" height="256">
  <defs>
    <linearGradient id="bg" x1="0%" y1="0%" x2="100%" y2="100%">
      <stop offset="0%" style="stop-color:#4A90D9"/>
      <stop offset="100%" style="stop-color:#2B5EA7"/>
    </linearGradient>
  </defs>
  <rect width="256" height="256" rx="48" fill="url(#bg)"/>
  <!-- File icon -->
  <path d="M80 40 h60 l40 40 v136 a8 8 0 0 1 -8 8 H88 a8 8 0 0 1 -8 -8 V48 a8 8 0 0 1 8 -8 z" fill="white" opacity="0.95"/>
  <path d="M140 40 v32 a8 8 0 0 0 8 8 h32" fill="none" stroke="white" stroke-width="2" opacity="0.6"/>
  <path d="M140 40 l40 40 h-32 a8 8 0 0 1 -8 -8 z" fill="white" opacity="0.7"/>
  <!-- "KB" text -->
  <text x="128" y="165" font-family="SF Pro Display, Helvetica Neue, Arial, sans-serif" font-size="52" font-weight="700" fill="#2B5EA7" text-anchor="middle" letter-spacing="-1">KB</text>
</svg>
